{"title":"Have i got a bit more news for you S54E06. revittony","magnet":"magnet:?xt=urn:btih:d002fffbb88ba98ee3bbcddc513e259b47c8d99e&dn=Have+i+got+a+bit+more+news+for+you+S54E06.+revittony&tr=udp%3A%2F%2Ftracker.leechers-paradise.org%3A6969&tr=udp%3A%2F%2Fzer0day.ch%3A1337&tr=udp%3A%2F%2Fopen.demonii.com%3A1337&tr=udp%3A%2F%2Ftracker.coppersurfer.tk%3A6969&tr=udp%3A%2F%2Fexodus.desync.com%3A6969","uploader":"revittony1","categoryP":"video","categoryS":"tv_shows","size":"756514193","seeders":"1","leechers":"1","description":"Format : MPEG-4 \r\nFormat profile : Base Media \r\nCodec ID : isom (isom/iso2/avc1/mp41) \r\nFile size : 729 MiB \r\nDuration : 42 min 8 s \r\nOverall bit rate mode : Variable \r\nOverall bit rate : 2 420 kb/s \r\nCollection : get_iplayer \r\n\r\nVideo \r\nID : 1 \r\nFormat : AVC \r\nFormat/Info : Advanced Video Codec \r\nFormat profile : <a href=\"/cdn-cgi/l/email-protection\" class=\"__cf_email__\" data-cfemail=\"bdf5d4dad5fdf189938c\">[email&#xA0;protected]</a> \r\nFormat settings : CABAC / 2 Ref Frames \r\nFormat settings, CABAC : Yes \r\nFormat settings, RefFrames : 2 frames \r\nCodec ID : avc1 \r\nCodec ID/Info : Advanced Video Coding \r\nDuration : 42 min 8 s \r\nBit rate mode : Variable \r\nBit rate : 2 321 kb/s \r\nMaximum bit rate : 3 500 kb/s \r\nWidth : 1 280 pixels \r\nHeight : 720 pixels \r\nDisplay aspect ratio : 16:9 \r\nFrame rate mode : Constant \r\nFrame rate : 25.000 FPS \r\nColor space : YUV \r\nChroma subsampling : 4:2:0 \r\nBit depth : 8 bits \r\nScan type : Progressive \r\nBits/(Pixel*Frame) : 0.101 \r\nStream size : 699 MiB (96%) \r\n\r\nAudio \r\nID : 2 \r\nFormat : AAC \r\nFormat/Info : Advanced Audio Codec \r\nFormat profile : LC \r\nCodec ID : mp4a-40-2 \r\nDuration : 42 min 8 s \r\nBit rate mode : Variable \r\nBit rate : 93.4 kb/s \r\nMaximum bit rate : 94.9 kb/s \r\nChannel(s) : 2 channels \r\nChannel positions : Front: L R \r\nSampling rate : 48.0 kHz \r\nFrame rate : 46.875 FPS (1024 SPF) \r\nCompression mode : Lossy \r\nStream size : 28.1 MiB (4%) \r\nDefault : Yes \r\nAlternate group : 1","last_updated":"2017-11-14T12:02:36.165Z","parsed":{"xt":"urn:btih:d002fffbb88ba98ee3bbcddc513e259b47c8d99e","dn":"Have i got a bit more news for you S54E06. revittony","tr":["udp://exodus.desync.com:6969","udp://open.demonii.com:1337","udp://tracker.coppersurfer.tk:6969","udp://tracker.leechers-paradise.org:6969","udp://zer0day.ch:1337"],"infoHash":"d002fffbb88ba98ee3bbcddc513e259b47c8d99e","infoHashBuffer":{"type":"Buffer","data":[208,2,255,251,184,139,169,142,227,187,205,220,81,62,37,155,71,200,217,158]},"name":"Have i got a bit more news for you S54E06. revittony","announce":["udp://exodus.desync.com:6969","udp://open.demonii.com:1337","udp://tracker.coppersurfer.tk:6969","udp://tracker.leechers-paradise.org:6969","udp://zer0day.ch:1337"],"urlList":[]}}